<svg id="Layer_1" data-name="Layer 1" xmlns="http://www.w3.org/2000/svg" viewBox="0 0 356.26 131.25"><defs><style>.cls-1{fill:#1c325f;}.cls-2{fill:#fff;}.cls-3{fill:#ca202b;}</style></defs><title>logo</title><path d="M145.78,69.59a.84.84,0,0,1,.41-.13h.38l.39,0a5.83,5.83,0,0,0,1.48-.23,2.43,2.43,0,0,0,1-1.06,38.56,38.56,0,0,0,1.91-4.66c.34-1,.55-1.53.64-1.74.27-.64.53-1.32.78-2l1.54-4.24c.24-.67.81-2.19,1.73-4.58.23-.6.5-1.41.83-2.42l.48,0,.57,0a21.42,21.42,0,0,1,1.24,3c.2.56.52,1.39,1,2.5l2.48,6.62,1.32,3.6c.7,2,1.15,3.29,1.37,3.76a2.67,2.67,0,0,0,.61.93,2.2,2.2,0,0,0,.61.19l.74.19a6.08,6.08,0,0,1,1,.36.76.76,0,0,1,.07.27,1.08,1.08,0,0,1-.05.25h-.73c-.56,0-1.54,0-2.94,0L163,70l-2,0a2.75,2.75,0,0,1-.4,0l-.35,0h-.36a.9.9,0,0,1-.33-.09.4.4,0,0,1,.45-.55l1.71-.11a3,3,0,0,0,1-.18,1.37,1.37,0,0,0,.1-.44,6.75,6.75,0,0,0-.43-1.5q-.28-.81-.51-1.53t-1.74-4.78A6.63,6.63,0,0,0,159,60.7l-3.49,0-1,0a11.31,11.31,0,0,0-1.23.08,6.37,6.37,0,0,0-.27.69l-1.44,4.44a21.82,21.82,0,0,0-.92,2.79,1.49,1.49,0,0,0,.15.48c.23.06.53.12.91.18l2.22.19c.12.1.18.18.18.26a1,1,0,0,1,0,.24l-1.13,0c-.87,0-1.88,0-3-.09l-1.14,0-1.19,0c-.37,0-.64,0-.8,0s-.6,0-1-.05v-.1A1,1,0,0,1,145.78,69.59Zm7.79-9.68c1.17.07,2.49.1,4,.1.85,0,1.6,0,2.24-.08a9.6,9.6,0,0,0-.38-1.18q-1-2.8-1.17-3.09l-1.48-3.72-.17-.29c-.06.13-.3.68-.71,1.66-.7,1.67-1.2,3-1.51,3.91-.14.42-.29.84-.44,1.25s-.25.7-.29.87a2,2,0,0,1-.17.51Z" transform="translate(-1 -1.58)"/><path d="M173.58,71.17q-.2-.11-1.26-.54a8.13,8.13,0,0,1-1.57-1.17,1.3,1.3,0,0,1-.32-.86.93.93,0,0,1,.24-.67,3.46,3.46,0,0,1,1.42-.71,16.63,16.63,0,0,0,1.75-.66c-.14-.1-.37-.24-.67-.42A4.6,4.6,0,0,1,170.74,62a4.88,4.88,0,0,1,1.54-3.65,5.48,5.48,0,0,1,4-1.49,6.08,6.08,0,0,1,2,.31,7.64,7.64,0,0,1,1.56.8l.76.46a2.16,2.16,0,0,0,.59.08c.18,0,.63-.05,1.35-.14s1.13-.14,1.26-.14a1.16,1.16,0,0,1,.62.15,2.16,2.16,0,0,1,.2,1.08.49.49,0,0,1-.14.38.55.55,0,0,1-.4.13,6.53,6.53,0,0,1-1.51-.28,7.5,7.5,0,0,0-1.28-.28l-.31,0a5.81,5.81,0,0,1,.7,2.53,4.58,4.58,0,0,1-.74,2.37,4.74,4.74,0,0,1-2,1.87,5.79,5.79,0,0,1-2.61.65l-.56,0a5.32,5.32,0,0,0-2.75.74c-.41.25-.61.48-.61.7s.2.44.59.66q1.55.81,5.88,1a8,8,0,0,1,2.92.53,3.32,3.32,0,0,1,1.57,1.38,3.62,3.62,0,0,1,.53,1.88,3.83,3.83,0,0,1-.89,2.42,6.26,6.26,0,0,1-2.73,1.8,11.86,11.86,0,0,1-4.2.69,10.47,10.47,0,0,1-4-.62,5.24,5.24,0,0,1-2-1.38,2.32,2.32,0,0,1-.6-1.46,3,3,0,0,1,.65-1.57,7.37,7.37,0,0,1,2.71-2Zm-1.2,5.72A6.07,6.07,0,0,0,176.14,78a10.56,10.56,0,0,0,3.22-.51,4.68,4.68,0,0,0,2.35-1.45,2.92,2.92,0,0,0,.75-1.78,2.17,2.17,0,0,0-.27-1,2.37,2.37,0,0,0-.71-.83,3.31,3.31,0,0,0-1.18-.53,7.31,7.31,0,0,0-1.48-.21c-1.83-.14-2.95-.21-3.37-.21a4.69,4.69,0,0,0-3.11,1.16,2.76,2.76,0,0,0-1.07,2.16A2.71,2.71,0,0,0,172.38,76.89ZM172.92,62a6,6,0,0,0,.44,2.43,3.25,3.25,0,0,0,1.21,1.45,3,3,0,0,0,3.91-.6,4.81,4.81,0,0,0,.94-3.26,5,5,0,0,0-1-3.36,3,3,0,0,0-2.37-1.16,2.74,2.74,0,0,0-2.35,1.1A5.82,5.82,0,0,0,172.92,62Z" transform="translate(-1 -1.58)"/><path d="M186.21,70.15l-.07-.21a.75.75,0,0,1,.15-.34l1-.19,1.36-.24a.49.49,0,0,0,.22-.23,4.07,4.07,0,0,0,.1-1.24q0-5.48-.06-6.31a1.8,1.8,0,0,0-.3-1.07A2.38,2.38,0,0,0,187.4,60a3.55,3.55,0,0,1-.88-.21l.06-.49a9,9,0,0,0,2.3-1.2,5.92,5.92,0,0,0,1.39-1.9h.56c.06.54.09,1.73.09,3.58V60a2.44,2.44,0,0,0,0,.3,9.46,9.46,0,0,1,1.55-2l.38-.37a2.61,2.61,0,0,1,.44-.4,3.93,3.93,0,0,1,1.69-.68,1.57,1.57,0,0,1,1.18.48,1.66,1.66,0,0,1,.46,1.17,1.1,1.1,0,0,1-.33.85,1.45,1.45,0,0,1-1,.41,4.09,4.09,0,0,1-1-.28,4,4,0,0,0-1-.27,1.1,1.1,0,0,0-.64.14,5.77,5.77,0,0,0-1.11,1.45,2.93,2.93,0,0,0-.5,1.52l.08,2.66,0,3.2a2.37,2.37,0,0,0,.13.71.89.89,0,0,0,.33.28c1.17.1,1.87.17,2.09.21l.34,0a2,2,0,0,1,1,.2.24.24,0,0,1,.14.24.47.47,0,0,1-.13.26l-1.81,0h-3.34l-.9,0Z" transform="translate(-1 -1.58)"/><path d="M198.2,58.66l0-.48a9.85,9.85,0,0,0,1.14-.36,5.15,5.15,0,0,0,1.23-.79,5.39,5.39,0,0,0,1.09-1.2l.31,0,.19,0c0,.51.07.89.07,1.13q0,.07,0,.72v5.5l0,4.92a1.22,1.22,0,0,0,.2.83,3.24,3.24,0,0,0,1.26.52,9.91,9.91,0,0,1,1,.31.5.5,0,0,1,0,.19.45.45,0,0,1-.08.24c-.42,0-1,0-1.63-.08-.9-.07-1.5-.11-1.79-.11l-2.62.08a9.4,9.4,0,0,0-.94.08,1.25,1.25,0,0,1-.26-.05.32.32,0,0,1-.09-.19c0-.15.11-.27.31-.36l1.67-.37a1,1,0,0,0,.68-.32,1.65,1.65,0,0,0,.28-1.08c0-.82,0-3.09,0-6.79a6,6,0,0,0-.09-1.38,1.29,1.29,0,0,0-.44-.45A4.91,4.91,0,0,0,198.2,58.66Zm1.37-8.37a1.21,1.21,0,0,1,.42-.92,1.41,1.41,0,0,1,1-.39,1.49,1.49,0,0,1,1.06.44,1.26,1.26,0,0,1,.46.93,1.3,1.3,0,0,1-.46.95,1.49,1.49,0,0,1-1.06.44,1.37,1.37,0,0,1-1-.4A1.42,1.42,0,0,1,199.57,50.29Z" transform="translate(-1 -1.58)"/><path d="M218.52,67.15v1A7.83,7.83,0,0,1,216,70.07a7.46,7.46,0,0,1-2.92.53,6,6,0,0,1-3.3-.94A6.13,6.13,0,0,1,207.54,67a8.05,8.05,0,0,1-.79-3.39,6.73,6.73,0,0,1,.95-3.44,6.19,6.19,0,0,1,2.53-2.42,8.76,8.76,0,0,1,4-.79,6.37,6.37,0,0,1,3.48.77,1.35,1.35,0,0,1,.67,1.16,1.19,1.19,0,0,1-.34.86,1.24,1.24,0,0,1-.89.33,2.68,2.68,0,0,1-1.79-1,4.2,4.2,0,0,0-1.09-.84,2.5,2.5,0,0,0-1.1-.24,3,3,0,0,0-2.41,1.18,6.49,6.49,0,0,0-1.34,4.21,6.06,6.06,0,0,0,1.37,4.16,4.16,4.16,0,0,0,3.2,1.55,5.73,5.73,0,0,0,2.26-.42A9.3,9.3,0,0,0,218.52,67.15Z" transform="translate(-1 -1.58)"/><path d="M220.51,57.45h1.22l.53,0,.43,0c1.11,0,1.81,0,2.08,0v.31c0,1.51,0,3-.06,4.4,0,.83-.05,1.31-.05,1.43a18.79,18.79,0,0,0,.19,3.55,1.85,1.85,0,0,0,.88,1.13,3.09,3.09,0,0,0,1.68.43,5.47,5.47,0,0,0,2.28-.49,7.26,7.26,0,0,0,1.86-1.2,11.19,11.19,0,0,0,.08-1.36c0-1.6,0-2.68.05-3.24,0-.33,0-.62,0-.87a8.12,8.12,0,0,0-.26-3c-.17-.22-.84-.39-2-.51-.38,0-.66-.08-.83-.12a.64.64,0,0,1-.13-.32l0-.17a5.87,5.87,0,0,1,.83,0l2.59,0,1.47,0h.35l0,1.18q-.12,2.45-.13,6.06l0,1.31.06,2.19a.87.87,0,0,0,.26.31,2.66,2.66,0,0,0,.8.08h.15c.14,0,.54,0,1.21.09,0,.14,0,.24,0,.31v.18a31,31,0,0,0-3.54.93,8,8,0,0,1-.91.26,5.73,5.73,0,0,1-.08-.69V68.36s0-.2,0-.43c-.14.09-.31.21-.49.35a14.75,14.75,0,0,1-2.73,1.66,4.27,4.27,0,0,1-1.86.47,3.5,3.5,0,0,1-2.79-1.26c-.73-.84-1.09-2.27-1.09-4.29,0-.11,0-.3,0-.58.05-.51.07-.87.07-1.08s0-.31,0-.71c0-.17,0-.32,0-.45s0-.31,0-.65,0-.58,0-.72,0-.34,0-.48l0-.86,0-.45a.62.62,0,0,0-.26-.47c-.69-.18-1.14-.28-1.35-.31a2.18,2.18,0,0,1-.56-.14Z" transform="translate(-1 -1.58)"/><path d="M237.76,50.13v-.36l1-.3,2.43-.79H242v.88q0,13.24-.08,15.8c0,1,0,1.53,0,1.6a7.05,7.05,0,0,0,.14,2c.13.2.53.33,1.2.41a4.36,4.36,0,0,1,1.19.22.25.25,0,0,1,.13.23.34.34,0,0,1-.08.25s-.13.07-.27.07l-1.71-.06L240.3,70l-2.74.13a.52.52,0,0,1-.39-.1.26.26,0,0,1-.1-.23.28.28,0,0,1,.11-.24,6.15,6.15,0,0,1,1.17-.25,4.56,4.56,0,0,0,1.23-.3.81.81,0,0,0,.2-.54c0-.39.07-1.48.07-3.27l0-3.71,0-3.84,0-3.83,0-1.89a1.38,1.38,0,0,0-.18-.81,1.72,1.72,0,0,0-.77-.5C238.38,50.41,238,50.24,237.76,50.13Z" transform="translate(-1 -1.58)"/><path d="M249.8,54.17l.5,0,.07,1.53,0,2,.39,0q.42,0,1.62-.06c.51,0,1,0,1.46,0h1a3.88,3.88,0,0,1,0,.52,4.06,4.06,0,0,1-.1.66h-.28l-2.53.08-1.26,0-.29,0a2.9,2.9,0,0,0-.13.93l0,2.42,0,4.26a3.8,3.8,0,0,0,.44,2.22,1.46,1.46,0,0,0,1.27.56,9.09,9.09,0,0,0,1.6-.25,2.84,2.84,0,0,0,1-.54h.15a.31.31,0,0,1,.33.33l0,.11a4.14,4.14,0,0,1-1.61,1.1,6.64,6.64,0,0,1-2.41.35,3,3,0,0,1-1.75-.48,2.2,2.2,0,0,1-.89-1.15,12.83,12.83,0,0,1-.2-2.88l.07-3.63,0-1.74v-.65q0-.45,0-.9l-.28,0-1.34,0-.13,0a.41.41,0,0,1-.27-.08.3.3,0,0,1-.08-.2.43.43,0,0,1,.12-.31,3,3,0,0,1,.74-.38,4,4,0,0,0,1-.67,5.43,5.43,0,0,0,.95-1.09,9.11,9.11,0,0,0,.56-1.22C249.58,54.67,249.71,54.36,249.8,54.17Z" transform="translate(-1 -1.58)"/><path d="M256,57.45h1.22l.54,0,.42,0c1.12,0,1.81,0,2.08,0l0,.31c0,1.51,0,3-.07,4.4,0,.83-.05,1.31-.05,1.43a19.74,19.74,0,0,0,.19,3.55,1.86,1.86,0,0,0,.89,1.13,3.07,3.07,0,0,0,1.67.43,5.4,5.4,0,0,0,2.28-.49A6.93,6.93,0,0,0,267,67a9.48,9.48,0,0,0,.08-1.36c0-1.6,0-2.68.05-3.24,0-.33,0-.62,0-.87a8.38,8.38,0,0,0-.26-3c-.18-.22-.84-.39-2-.51-.38,0-.66-.08-.84-.12a.76.76,0,0,1-.13-.32l.05-.17a6,6,0,0,1,.83,0l2.6,0,1.47,0h.34l0,1.18q-.11,2.45-.13,6.06l0,1.31.07,2.19a.71.71,0,0,0,.26.31,2.61,2.61,0,0,0,.8.08h.14c.15,0,.55,0,1.21.09,0,.14,0,.24,0,.31v.18a31,31,0,0,0-3.54.93,8.07,8.07,0,0,1-.92.26c-.05-.38-.08-.61-.08-.69V68.36s0-.2,0-.43c-.14.09-.3.21-.48.35a14.75,14.75,0,0,1-2.73,1.66,4.27,4.27,0,0,1-1.86.47,3.5,3.5,0,0,1-2.79-1.26c-.73-.84-1.1-2.27-1.1-4.29,0-.11,0-.3,0-.58,0-.51.07-.87.07-1.08s0-.31,0-.71c0-.17,0-.32,0-.45s0-.31,0-.65,0-.58,0-.72,0-.34,0-.48l0-.86v-.45a.59.59,0,0,0-.26-.47c-.68-.18-1.13-.28-1.34-.31A2.27,2.27,0,0,1,256,58Z" transform="translate(-1 -1.58)"/><path d="M273.05,70.15l-.06-.21a.82.82,0,0,1,.14-.34l1-.19,1.35-.24a.47.47,0,0,0,.23-.23,4.07,4.07,0,0,0,.1-1.24q0-5.48-.07-6.31a1.82,1.82,0,0,0-.29-1.07,2.43,2.43,0,0,0-1.18-.36,3.67,3.67,0,0,1-.88-.21l.07-.49a9,9,0,0,0,2.3-1.2,6.08,6.08,0,0,0,1.39-1.9h.55c.07.54.1,1.73.1,3.58l0,.28a1.53,1.53,0,0,0,0,.3,9.46,9.46,0,0,1,1.55-2l.37-.37a2.61,2.61,0,0,1,.44-.4,4,4,0,0,1,1.7-.68,1.53,1.53,0,0,1,1.17.48,1.61,1.61,0,0,1,.46,1.17,1.13,1.13,0,0,1-.32.85,1.49,1.49,0,0,1-1,.41,4.16,4.16,0,0,1-1-.28,4.08,4.08,0,0,0-1-.27,1.08,1.08,0,0,0-.63.14,5.33,5.33,0,0,0-1.11,1.45,3,3,0,0,0-.51,1.52l.08,2.66,0,3.2a2.27,2.27,0,0,0,.14.71.93.93,0,0,0,.32.28c1.18.1,1.87.17,2.09.21l.34,0a2,2,0,0,1,1,.2.25.25,0,0,1,.15.24.47.47,0,0,1-.13.26l-1.81,0h-3.35l-.9,0Z" transform="translate(-1 -1.58)"/><path d="M297,61.59l-6.55,0h-1.24q-.75,0-1.53.06a2.82,2.82,0,0,0-.15.66l0,.16v.17l0,.79a6.28,6.28,0,0,0,.63,2.41A4.84,4.84,0,0,0,290,68.06a5.58,5.58,0,0,0,2.92.8,5.82,5.82,0,0,0,1.48-.23,7.25,7.25,0,0,0,1.57-.82l1.17-1,.1.65a2.09,2.09,0,0,1,0,.24,7,7,0,0,1-1.87,1.61,9.19,9.19,0,0,1-2.28,1,8.58,8.58,0,0,1-1.83.14,5.75,5.75,0,0,1-2.28-.47,5.48,5.48,0,0,1-2.62-2.28,7.19,7.19,0,0,1-1-3.81,8.06,8.06,0,0,1,.27-1.82,9.49,9.49,0,0,1,1-2.37,4.6,4.6,0,0,1,1.16-1.4,7.34,7.34,0,0,1,1.72-1.08,6.39,6.39,0,0,1,2.46-.44,4.86,4.86,0,0,1,4.43,2.42,4.33,4.33,0,0,1,.65,2.09ZM287.92,61h.77c.55,0,2.2-.09,5-.26a2,2,0,0,0,.8-.13.85.85,0,0,0,.29-.55,2.5,2.5,0,0,0-.33-1.13,2.23,2.23,0,0,0-1-1,3.42,3.42,0,0,0-1.57-.34,3.73,3.73,0,0,0-3,1.4A3.22,3.22,0,0,0,287.92,61Z" transform="translate(-1 -1.58)"/><path d="M148.37,20.43l0-.83c1.78,0,3.09,0,3.91-.13a6.41,6.41,0,0,1,.68-.06l.46,0a9.82,9.82,0,0,1,1.35,1.38l.31.35,3.63,4,.52.62c.73.86,1.4,1.6,2,2.21s1.78,1.88,3.52,3.81l4.12,4.57,1.55,1.67,0-.28c-.07-1.6-.1-2.44-.1-2.53l.07-1,0-1.62v-.74c0-.47,0-1.92-.12-4.36,0-.33-.06-1-.14-1.89s-.12-1.73-.12-2.43a5.73,5.73,0,0,0-.22-2.21,3.13,3.13,0,0,0-1.47-.47c-.2,0-.53,0-1-.1a4.17,4.17,0,0,1-.92-.09.59.59,0,0,1-.27-.29,1.56,1.56,0,0,1,.15-.52,3.3,3.3,0,0,1,.92-.13,7.33,7.33,0,0,1,1.19.12,7.93,7.93,0,0,0,1.29.12c.53,0,1.35,0,2.46-.11.64,0,1.07-.07,1.31-.07h.3l0,.54a2.25,2.25,0,0,1-.76.15,3.53,3.53,0,0,0-.89.14,2,2,0,0,0-.74.33,1.34,1.34,0,0,0-.42.91l.19,5.45.14,2.5,0,.72.11,3.47q.1,3.54.1,6.17c0,.38,0,1.2-.07,2.46l-.8.07c-.41-.46-1.79-1.91-4.16-4.34-.55-.56-.92-1-1.12-1.19l-1.48-1.71c-.58-.63-1-1-1.12-1.2l-.38-.38q-1.87-2.14-4.88-5.35c-.54-.57-1.33-1.47-2.38-2.69-.66-.77-1.07-1.24-1.24-1.41a5.42,5.42,0,0,0-.71-.58l-.05.58q0,3.36.17,9.27l.12,5.71c0,.48,0,.95.09,1.4l.6.13c1.09.11,2.17.26,3.22.47a1.05,1.05,0,0,0,.21.15l0,.66a1.48,1.48,0,0,1-.44.09,4.7,4.7,0,0,1-.47,0c-1.14-.09-2.52-.14-4.15-.14-1.15,0-2.16,0-3,.09l-.24,0-.45,0V41.3l.44-.2.81-.12a8.13,8.13,0,0,0,1.59-.35,1.19,1.19,0,0,0,.53-.36,23.24,23.24,0,0,0,.19-3.48c0-.71,0-2-.05-3.91V30.53l0-4.89a20.26,20.26,0,0,0-.23-3.86,1.12,1.12,0,0,0-.43-.56,3.61,3.61,0,0,0-1.71-.58A10.31,10.31,0,0,1,148.37,20.43Z" transform="translate(-1 -1.58)"/><path d="M189.37,32.41l-6.91.05h-1.31c-.53,0-1.07,0-1.62.07a2.83,2.83,0,0,0-.16.71l0,.17v.17l0,.85A6.56,6.56,0,0,0,180,37a5.08,5.08,0,0,0,1.89,2.33,5.76,5.76,0,0,0,3.08.85,6,6,0,0,0,1.57-.24,7.59,7.59,0,0,0,1.65-.88l1.24-1,.11.69c0,.08,0,.16,0,.26a7.53,7.53,0,0,1-2,1.72,9.36,9.36,0,0,1-2.41,1.08,8,8,0,0,1-1.93.16,6.23,6.23,0,0,1-2.41-.5A5.91,5.91,0,0,1,178.07,39a7.81,7.81,0,0,1-1-4.08,8.74,8.74,0,0,1,.29-1.94,10.37,10.37,0,0,1,1-2.54A5,5,0,0,1,179.6,29a8.11,8.11,0,0,1,1.81-1.15,6.7,6.7,0,0,1,2.6-.47,5.12,5.12,0,0,1,4.68,2.59,4.73,4.73,0,0,1,.68,2.24Zm-9.62-.62h.81c.59,0,2.33-.09,5.24-.28a2.22,2.22,0,0,0,.85-.13,1,1,0,0,0,.31-.59,2.71,2.71,0,0,0-.35-1.21,2.36,2.36,0,0,0-1.06-1.06,3.66,3.66,0,0,0-1.66-.37,3.93,3.93,0,0,0-3.21,1.5A3.47,3.47,0,0,0,179.75,31.79Z" transform="translate(-1 -1.58)"/><path d="M190.66,27.93l6.62,0a.37.37,0,0,1,.26.07.28.28,0,0,1,.07.2.55.55,0,0,1-.26.49,3.48,3.48,0,0,0-1.49.29.66.66,0,0,0-.3.57,1.65,1.65,0,0,0,0,.32,11.12,11.12,0,0,0,.5,1.23q.59,1.36,2.08,4.41l2,4.17a48.56,48.56,0,0,0,2.84-5.7L202,31.24c-.11-.25-.26-.63-.44-1.14a3,3,0,0,0-.41-.89,4.3,4.3,0,0,0-1.06-.38,4.45,4.45,0,0,1-1.08-.4l0-.12a.66.66,0,0,1,.11-.29,2.82,2.82,0,0,1,.65-.11l1,0h2.16l.65,0,2.12,0,.43,0h.3l.29,0,0,.55a2.3,2.3,0,0,1-.87.22,5.22,5.22,0,0,0-1.74.43.62.62,0,0,0-.19.37,2.83,2.83,0,0,0,.21.94c.05.12.17.47.36,1.07l1.85,4.86c.54,1.45,1,2.46,1.25,3a47,47,0,0,0,2-4.78c.31-.8.72-1.76,1.24-2.88a4.4,4.4,0,0,0,.49-1.82.87.87,0,0,0-.29-.67,3.15,3.15,0,0,0-1.36-.52,6.51,6.51,0,0,1-.95-.26.42.42,0,0,1-.09-.22.52.52,0,0,1,.19-.33h.26l1.4,0,.79,0,1.38,0,1.19,0h.86a.35.35,0,0,1,.15.08.37.37,0,0,1,0,.18,2.17,2.17,0,0,1-.05.41,3.44,3.44,0,0,0-1.33.39,5.3,5.3,0,0,0-1.31,1.56L209.09,38c-.28.69-.78,1.75-1.49,3.17-.15.3-.26.54-.34.72a1.05,1.05,0,0,1-.21.37.49.49,0,0,1-.28.08,1,1,0,0,1-.33-.07Q206,41.3,204.3,37c-.3-.76-.58-1.41-.83-1.94-1.87,3.91-3.09,6.3-3.68,7.2l-.37,0-.36,0-3.26-6.81-3-5.83a2.15,2.15,0,0,0-.48-.65,2.79,2.79,0,0,0-1-.31l-.64-.11c0-.17,0-.3,0-.39S190.65,28,190.66,27.93Z" transform="translate(-1 -1.58)"/><path d="M224.23,19.31h.83l2,.05q2.34.09,3.9.09l2,0a5.46,5.46,0,0,1,.83.07.46.46,0,0,1,.12.3V20l-.43.2h-.19l-1,0-.51,0a1.62,1.62,0,0,0-.95.26.52.52,0,0,0-.27.4,1.09,1.09,0,0,0,.24.57c0,.09.15.23.27.41a15.66,15.66,0,0,0,.92,1.36c.54.76,1.11,1.66,1.72,2.69.24.42.5.82.76,1.2l2.62,4c.17-.22.41-.54.71-1l2.49-3.57,2.87-4.3a3.26,3.26,0,0,0,.44-.86.92.92,0,0,0,0-.29.68.68,0,0,0-.33-.59,5.88,5.88,0,0,0-2.31-.54l-.33-.05a.7.7,0,0,1-.12-.34,2,2,0,0,1,0-.23h.9l3.24.08,2.6-.05.72,0-.05.6a1.51,1.51,0,0,1-.38.05l-.41.06-.33,0a2.5,2.5,0,0,0-.57.29A58.54,58.54,0,0,0,242,25.41q-1.77,2.39-3,4.33c-.26.42-.47.74-.63,1a3.58,3.58,0,0,0-.54.86,8.43,8.43,0,0,0-.19,2,56.51,56.51,0,0,0,.19,6.33c.07.33.16.52.28.59a18.22,18.22,0,0,0,3.57.54v.2a1.23,1.23,0,0,1-.13.49l-4.41-.19-3,.15h-2.41c-.23,0-.49,0-.76,0a.76.76,0,0,1-.07-.27.64.64,0,0,1,.05-.24.45.45,0,0,1,.24-.12l2.23-.35a4.84,4.84,0,0,0,1.3-.52,1,1,0,0,0,.26-.63c0-.21,0-1.81,0-4.8a10.82,10.82,0,0,0-.11-2,6.53,6.53,0,0,0-.74-1.3L231.92,28l-3.85-5.6a7.27,7.27,0,0,0-1.74-1.95,4.28,4.28,0,0,0-1.63-.34,2.61,2.61,0,0,1-.42,0Z" transform="translate(-1 -1.58)"/><path d="M247.17,34.58a7.28,7.28,0,0,1,.49-2.51,7.37,7.37,0,0,1,3.61-4,9.15,9.15,0,0,1,3.83-.72,7.22,7.22,0,0,1,5.38,2.2,7.3,7.3,0,0,1,2.17,5.31,6.64,6.64,0,0,1-2.27,4.92A7.94,7.94,0,0,1,254.65,42a7.83,7.83,0,0,1-4-1.12,7.2,7.2,0,0,1-2.43-2.5A7.06,7.06,0,0,1,247.17,34.58Zm7.63,6.72a4.82,4.82,0,0,0,4.47-3,8.52,8.52,0,0,0,.72-3.61,10.63,10.63,0,0,0-.56-3.12,5.15,5.15,0,0,0-1.73-2.66,4.36,4.36,0,0,0-2.73-.89,5.66,5.66,0,0,0-2.32.53,4.46,4.46,0,0,0-2,2.06,9.25,9.25,0,0,0-.82,4.3,7,7,0,0,0,1.43,4.75A4.52,4.52,0,0,0,254.8,41.3Z" transform="translate(-1 -1.58)"/><path d="M265.23,41.56l-.07-.22a.74.74,0,0,1,.16-.36l1-.21,1.43-.26a.43.43,0,0,0,.24-.24,4.47,4.47,0,0,0,.11-1.32c0-3.9,0-6.16-.07-6.76a2,2,0,0,0-.31-1.14,2.49,2.49,0,0,0-1.24-.38,4.56,4.56,0,0,1-.93-.22l.07-.53a10.09,10.09,0,0,0,2.43-1.28,6.51,6.51,0,0,0,1.46-2l.59,0c.07.57.1,1.85.1,3.83l0,.29a1.77,1.77,0,0,0,0,.33,9.36,9.36,0,0,1,1.64-2.19l.39-.4a2.58,2.58,0,0,1,.47-.43,4.1,4.1,0,0,1,1.79-.72,1.65,1.65,0,0,1,1.24.5,1.76,1.76,0,0,1,.48,1.25,1.2,1.2,0,0,1-.34.92,1.52,1.52,0,0,1-1.07.43,4.35,4.35,0,0,1-1.09-.29,4,4,0,0,0-1.07-.3A1,1,0,0,0,272,30a5.87,5.87,0,0,0-1.17,1.55,3.15,3.15,0,0,0-.53,1.62l.08,2.85,0,3.42a2.39,2.39,0,0,0,.14.76,1,1,0,0,0,.34.29c1.24.11,2,.18,2.21.23l.36,0a2,2,0,0,1,1,.21.27.27,0,0,1,.16.26.5.5,0,0,1-.14.27l-1.91,0-.73,0-1.05,0h-1.76l-.94,0Z" transform="translate(-1 -1.58)"/><path d="M277.83,41.49l0-.5a.67.67,0,0,1,.26-.12,7.78,7.78,0,0,1,.87-.08c.5,0,.81-.15.94-.34a7.12,7.12,0,0,0,.19-2.35l0-6.8,0-1.21c0-.1,0-.48,0-1.15,0-.31,0-.68,0-1.12l-.07-3,0-2.61A1.83,1.83,0,0,0,279.8,21a4.5,4.5,0,0,0-1.89-.49v-.21c0-.07,0-.16,0-.29a10.26,10.26,0,0,0,1.74-.52c.26-.11.94-.47,2-1.06h.53c0,.26,0,.42,0,.48v2.24l.05,1.36,0,2.05,0,3.41-.05,4.24v1.31c0,.17,0,.39,0,.68h.19a2,2,0,0,0,1.19-.43,30.81,30.81,0,0,0,3.4-2.63c.46-.46.69-.8.69-1a.91.91,0,0,0-.23-.49,3.8,3.8,0,0,0-1.15-.38l-.41-.08a4,4,0,0,0-.52-.12l0-.18a1,1,0,0,1,.09-.34c1.81-.07,3.39-.1,4.74-.1.76,0,1.57,0,2.43.05v.22a.74.74,0,0,1-.09.31l-.81.16a4.9,4.9,0,0,0-1.62.48,14,14,0,0,0-2.74,2c-.56.51-1.05.93-1.46,1.28l-.62.53a1.84,1.84,0,0,0,.22.3,2.64,2.64,0,0,1,.28.31c.14.16.38.43.74.81q1.86,2,2.76,3l.65.76c.9,1,1.42,1.56,1.57,1.67a3.89,3.89,0,0,0,1.43.48l.78.16a1.23,1.23,0,0,1,.06.32v.18c-.82-.07-1.4-.11-1.76-.11h-.31l-4.79.14-.38,0a1.15,1.15,0,0,1-.36-.07.64.64,0,0,1-.06-.24v-.12a.47.47,0,0,1,.19-.19,16.24,16.24,0,0,0,2-.23.51.51,0,0,0,.29-.19,2.08,2.08,0,0,0-.5-.95c-.33-.43-1.16-1.39-2.49-2.87A11.57,11.57,0,0,0,283.88,35a1.84,1.84,0,0,0-1-.23h-.66c0,.41-.07,1.35-.07,2.83a6.26,6.26,0,0,0,.35,2.65c.13.22.42.35.9.41a2.06,2.06,0,0,1,.91.26.68.68,0,0,1,.17.48h-1.74c-.76,0-1.59,0-2.48,0l-1.28,0C278.73,41.51,278.35,41.51,277.83,41.49Z" transform="translate(-1 -1.58)"/><path d="M146.72,89v-.36c.57-.15.88-.24.92-.26a4.51,4.51,0,0,0,1-.6,4.62,4.62,0,0,0,.87-.9l.25,0h.16c0,.39.05.67.05.85s0,.22,0,.54v.64l0,3.49,0,3.69a.89.89,0,0,0,.15.63,2.77,2.77,0,0,0,1,.39c.35.09.61.17.79.23a.56.56,0,0,1,0,.15.53.53,0,0,1-.07.18l-1.31-.06q-1.08-.09-1.44-.09l-2.09.06c-.27,0-.52,0-.76.06l-.21,0a.25.25,0,0,1-.07-.15c0-.11.09-.2.25-.26s.48-.11,1.34-.28a.91.91,0,0,0,.55-.24,1.26,1.26,0,0,0,.22-.81c0-.63,0-2.33,0-5.11a4.3,4.3,0,0,0-.07-1,1.12,1.12,0,0,0-.35-.33A4.27,4.27,0,0,0,146.72,89Zm1.1-6.28a.88.88,0,0,1,.33-.69,1.19,1.19,0,0,1,.81-.29,1.22,1.22,0,0,1,.85.32.86.86,0,0,1,0,1.41,1.19,1.19,0,0,1-.85.34,1.12,1.12,0,0,1-.81-.31A1,1,0,0,1,147.82,82.76Z" transform="translate(-1 -1.58)"/><path d="M152.6,97.24a6,6,0,0,1,.76-.15,2.33,2.33,0,0,0,1-.25.93.93,0,0,0,.16-.66l0-.44c0-.16,0-.37,0-.61l0-3.71a1.46,1.46,0,0,0-.21-1A2.35,2.35,0,0,0,153,90v-.44a4.07,4.07,0,0,0,1.46-.63,4.39,4.39,0,0,0,1.26-1.48h.44c0,.38,0,.65,0,.82v.8l0,.22.36-.25a9.16,9.16,0,0,1,1.61-.89,8.29,8.29,0,0,1,1.47-.48,4.25,4.25,0,0,1,.92-.1,3.12,3.12,0,0,1,1.84.54,2.37,2.37,0,0,1,1,1.25,11.09,11.09,0,0,1,.23,2.87v1.83s0,.21,0,.48,0,.59,0,1a4.51,4.51,0,0,0,.08,1.08.8.8,0,0,0,.34.31,3.25,3.25,0,0,1,1.47.38v.1a.84.84,0,0,1-.08.3h-.25l-1.73,0-1.7,0c-.63,0-1.21,0-1.74,0l-.08-.26a.39.39,0,0,1,.09-.19,3.28,3.28,0,0,1,1-.19,2,2,0,0,0,.52-.08,1.27,1.27,0,0,0,.36-.19,1.12,1.12,0,0,0,.15-.49s0-.16,0-.33c0-.38-.05-1.3-.06-2.78v-.63l0-1a2.8,2.8,0,0,0-.68-2.16,2.64,2.64,0,0,0-1.82-.59,4.48,4.48,0,0,0-1.72.35,6.06,6.06,0,0,0-1.62,1.07c0,.39,0,.72,0,1l0,2.67c0,1.4,0,2.26.07,2.57a.6.6,0,0,0,.09.27,1,1,0,0,0,.42.15l.73.17.54.14a.49.49,0,0,1,.35.24v.24H157l-2.83,0-1.25,0h-.32l0-.16A.85.85,0,0,1,152.6,97.24Z" transform="translate(-1 -1.58)"/><path d="M176.23,85.67l.41,0,.05,1.15,0,1.49H177l1.29,0c.41,0,.81,0,1.18,0l.79,0a2.91,2.91,0,0,1,0,.38,2.5,2.5,0,0,1-.07.5H180l-2,.06-1,0-.24,0a2.11,2.11,0,0,0-.1.7l0,1.82,0,3.19a2.77,2.77,0,0,0,.35,1.67,1.22,1.22,0,0,0,1,.43,8,8,0,0,0,1.29-.2,2.26,2.26,0,0,0,.77-.4h.12a.29.29,0,0,1,.19.07.27.27,0,0,1,.07.18v.08a3.44,3.44,0,0,1-1.29.83,6,6,0,0,1-1.94.26,2.53,2.53,0,0,1-1.4-.36,1.67,1.67,0,0,1-.72-.86,9.52,9.52,0,0,1-.15-2.17l0-2.72V90c0-.22,0-.45,0-.67l-.22,0-1.08,0h-.1a.34.34,0,0,1-.22-.06.17.17,0,0,1-.07-.14.3.3,0,0,1,.1-.24,2.45,2.45,0,0,1,.59-.28,3.06,3.06,0,0,0,.8-.51,3.87,3.87,0,0,0,.76-.81,6,6,0,0,0,.45-.92C176.06,86.05,176.16,85.81,176.23,85.67Z" transform="translate(-1 -1.58)"/><path d="M180.81,97.33a8.37,8.37,0,0,0,1.77-.38c.1-.06.14-.19.14-.39V94.35l0-3.61v-2.3l0-1.17q0-2.76-.06-3.3c0-.36-.11-.58-.23-.67a4.75,4.75,0,0,0-1.72-.58v-.06a1.15,1.15,0,0,1,0-.24l.35-.06a2.21,2.21,0,0,1,.33,0,11,11,0,0,0,2.27-.8h.64c0,.23,0,.94,0,2.14l0,1.54,0,2-.06,2.45a4.4,4.4,0,0,0,0,.48,13.29,13.29,0,0,1,1.2-1.18,6.12,6.12,0,0,1,1.46-.8,4.49,4.49,0,0,1,1.63-.3,3.1,3.1,0,0,1,3.22,3.35l0,1.23,0,.69-.05,1.2c0,1-.06,1.58-.06,1.76s0,.5,0,.85l.75.16c.49.1.88.18,1.15.26l0,.38-2.78-.07c-.16,0-.59,0-1.29,0l-.74,0h-.29a.32.32,0,0,1-.07-.18v-.11a1.08,1.08,0,0,1,.68-.29l.79-.17a.4.4,0,0,0,.18-.25q.06-.31.12-3.12l0-.9a7.32,7.32,0,0,0-.24-2.34,1.74,1.74,0,0,0-.83-1,3,3,0,0,0-1.5-.38,3.35,3.35,0,0,0-1.34.28,5.18,5.18,0,0,0-1,.72,4.11,4.11,0,0,0-.84.87,1.53,1.53,0,0,0-.16.79l0,.85,0,.88c0,.07,0,.57,0,1.51v.77l0,.84a1.3,1.3,0,0,0,0,.27l1.85.41a2.82,2.82,0,0,1,.43.15l0,.13a.43.43,0,0,1-.07.2h-1.59l-2.26,0-1.69,0-.39,0v-.08A.45.45,0,0,1,180.81,97.33Z" transform="translate(-1 -1.58)"/><path d="M204.35,91.24l-5.25,0h-1c-.4,0-.81,0-1.23,0a2,2,0,0,0-.12.5v.83a4.51,4.51,0,0,0,.5,1.81,3.73,3.73,0,0,0,1.44,1.64,4.87,4.87,0,0,0,2.34.6,6,6,0,0,0,1.19-.17,6.38,6.38,0,0,0,1.26-.62l.94-.72.08.49a1.21,1.21,0,0,1,0,.18A5.84,5.84,0,0,1,203,97.08a7.39,7.39,0,0,1-1.84.76,6.32,6.32,0,0,1-1.46.11,5.13,5.13,0,0,1-1.84-.35,4.37,4.37,0,0,1-2.1-1.71A5.16,5.16,0,0,1,195,93a5.79,5.79,0,0,1,.21-1.36,7.27,7.27,0,0,1,.78-1.78,3.54,3.54,0,0,1,.93-1.06A6.36,6.36,0,0,1,198.3,88a5.48,5.48,0,0,1,2-.33,4.14,4.14,0,0,1,2,.42,3.85,3.85,0,0,1,1.57,1.4,3.14,3.14,0,0,1,.51,1.57Zm-7.3-.43h.61c.45,0,1.78-.07,4-.2a1.72,1.72,0,0,0,.65-.09.66.66,0,0,0,.23-.41,1.9,1.9,0,0,0-.26-.86,1.77,1.77,0,0,0-.81-.74,2.92,2.92,0,0,0-1.26-.26,3,3,0,0,0-2.43,1.06A2.3,2.3,0,0,0,197.05,90.81Z" transform="translate(-1 -1.58)"/><path d="M232.67,77.52a17.07,17.07,0,0,1,.2,2.59c0,.18,0,.41,0,.71a1.94,1.94,0,0,1-.35,0l-.29,0a5.72,5.72,0,0,0-2.29-3,7.14,7.14,0,0,0-3.93-1,7,7,0,0,0-2.1.28,9,9,0,0,0-2.64,1.4,8.72,8.72,0,0,0-1.93,2.13,10.62,10.62,0,0,0-1.25,3,14.42,14.42,0,0,0-.46,3.59A13.59,13.59,0,0,0,218.7,93a6.75,6.75,0,0,0,3,3.25,8.28,8.28,0,0,0,3.82,1l.79,0a12.56,12.56,0,0,0,1.82-.31,8.64,8.64,0,0,0,2-.81,6.6,6.6,0,0,0,1.56-1.32,8.18,8.18,0,0,0,1.3-2l.2-.06a.55.55,0,0,1,.25.1c0,.26,0,.43,0,.5q-.71,2.77-1,3.78l-.67.2a16.84,16.84,0,0,1-5.24.66,16.17,16.17,0,0,1-4-.36,16.46,16.46,0,0,1-2.86-1.09,9.37,9.37,0,0,1-2.72-2,9.13,9.13,0,0,1-1.89-3.1,11.29,11.29,0,0,1-.72-4.08,10.91,10.91,0,0,1,.56-3.66,12.78,12.78,0,0,1,1.76-3.17,11.12,11.12,0,0,1,2.81-2.67A10.73,10.73,0,0,1,223,76.39,20.72,20.72,0,0,1,227,76.1a12.39,12.39,0,0,1,3.5.48A7.08,7.08,0,0,1,232.67,77.52Z" transform="translate(-1 -1.58)"/><path d="M235.93,77.28v-.36l1-.31,2.49-.8h.8v.9q0,13.44-.09,16c0,1,0,1.55,0,1.62a6.73,6.73,0,0,0,.15,2c.14.19.55.33,1.23.41a4.05,4.05,0,0,1,1.22.23.23.23,0,0,1,.13.23.34.34,0,0,1-.07.25.43.43,0,0,1-.28.07l-1.76,0-2.19-.08-2.82.13a.55.55,0,0,1-.4-.1.29.29,0,0,1-.1-.23.3.3,0,0,1,.11-.25,6.59,6.59,0,0,1,1.21-.25,4,4,0,0,0,1.25-.31.76.76,0,0,0,.21-.54c.05-.4.07-1.5.07-3.33l0-3.76,0-3.9V81l0-1.91a1.47,1.47,0,0,0-.19-.83,1.84,1.84,0,0,0-.79-.5C236.56,77.56,236.15,77.39,235.93,77.28Z" transform="translate(-1 -1.58)"/><path d="M257,95.34a1,1,0,0,1,.1.31,2.25,2.25,0,0,1-.4.87,3.67,3.67,0,0,1-1.16,1.19,2.17,2.17,0,0,1-1.11.25,2.21,2.21,0,0,1-1.8-.72,3,3,0,0,1-.52-1.53L250.2,97a7.47,7.47,0,0,1-1.5.7,7.86,7.86,0,0,1-2,.22,1.83,1.83,0,0,1-1.35-.5,1.75,1.75,0,0,1-.5-1.29,4.48,4.48,0,0,1,1.42-2.7,10.48,10.48,0,0,1,3.85-2.57c1.15-.47,1.84-.77,2.1-.9,0-.36,0-.75,0-1.18a4.7,4.7,0,0,0-.59-2.81,2.06,2.06,0,0,0-1.71-.74,3.21,3.21,0,0,0-2.16.88,3.81,3.81,0,0,0-.94,2.1,3.66,3.66,0,0,1-.39.92,2.39,2.39,0,0,1-1.15.45,1.13,1.13,0,0,1-.67-.21.29.29,0,0,1-.17-.26,5.54,5.54,0,0,1,.93-1.92,6.14,6.14,0,0,1,2.34-2.25,5.55,5.55,0,0,1,2.47-.74,6.68,6.68,0,0,1,2.14.25,2.89,2.89,0,0,1,1.24.89,2.83,2.83,0,0,1,.66,1.4c0,.24.06,1.09.06,2.57l-.05,2.6,0,1.9c0,.25,0,.46,0,.64s0,.55,0,.7a1.17,1.17,0,0,0,.32.87,1,1,0,0,0,.75.33,1.32,1.32,0,0,0,1.09-.63l.2-.26A1.53,1.53,0,0,1,257,95.34Zm-4.91-.48c.08-1.38.12-2.36.12-2.93,0-.29,0-.69-.05-1.19a11.79,11.79,0,0,0-2.39,1.19,7.16,7.16,0,0,0-2,1.85,2.46,2.46,0,0,0-.53,1.43,1.39,1.39,0,0,0,.44,1.06,1.58,1.58,0,0,0,1.12.43,3.05,3.05,0,0,0,1.26-.36A8.5,8.5,0,0,0,252.06,94.86Z" transform="translate(-1 -1.58)"/><path d="M260.14,93.41a12.46,12.46,0,0,0,.94,2,4.76,4.76,0,0,0,1.52,1.45,3.82,3.82,0,0,0,1.93.51,2.86,2.86,0,0,0,1.89-.8,1.83,1.83,0,0,0,.67-1.41,2.89,2.89,0,0,0-.79-2,7.55,7.55,0,0,0-3-1.7,7,7,0,0,1-2.95-1.72,3.22,3.22,0,0,1-.75-2.1,3.18,3.18,0,0,1,.62-2,3.77,3.77,0,0,1,1.7-1.29,5.47,5.47,0,0,1,2-.43,11.48,11.48,0,0,1,2.14.18,5.58,5.58,0,0,1,1.63.55c.09.56.16,1.38.22,2.46l0,.52a2.56,2.56,0,0,1-.37,0h-.23a4.76,4.76,0,0,0-1.53-2.15,3.37,3.37,0,0,0-2-.8,2.22,2.22,0,0,0-1.62.6,2.09,2.09,0,0,0-.62,1.57,1.93,1.93,0,0,0,.5,1.3,6.68,6.68,0,0,0,2.35,1.31,11.78,11.78,0,0,1,2.7,1.37,3.91,3.91,0,0,1,1.25,1.53,4.33,4.33,0,0,1,.4,1.72A3.42,3.42,0,0,1,268,96.3a4.11,4.11,0,0,1-1.91,1.39,6.53,6.53,0,0,1-2.05.4,9.86,9.86,0,0,1-3.92-.77.64.64,0,0,1-.19-.49q0-.15,0-.48c-.18-1.47-.27-2.34-.27-2.62a.3.3,0,0,1,.09-.26A.9.9,0,0,1,260.14,93.41Z" transform="translate(-1 -1.58)"/><path d="M273.09,93.41a13.43,13.43,0,0,0,.94,2,4.79,4.79,0,0,0,1.53,1.45,3.78,3.78,0,0,0,1.92.51,2.86,2.86,0,0,0,1.89-.8,1.83,1.83,0,0,0,.67-1.41,2.93,2.93,0,0,0-.78-2,7.63,7.63,0,0,0-3-1.7,7,7,0,0,1-3-1.72,3.36,3.36,0,0,1-.13-4.06,3.75,3.75,0,0,1,1.71-1.29,5.39,5.39,0,0,1,2-.43,11.44,11.44,0,0,1,2.13.18,5.48,5.48,0,0,1,1.63.55c.09.56.16,1.38.22,2.46l0,.52a2.43,2.43,0,0,1-.36,0h-.24a4.61,4.61,0,0,0-1.53-2.15,3.34,3.34,0,0,0-2-.8,2.24,2.24,0,0,0-1.63.6A2.09,2.09,0,0,0,274.5,87a1.93,1.93,0,0,0,.5,1.3,6.65,6.65,0,0,0,2.36,1.31,11.88,11.88,0,0,1,2.69,1.37,3.82,3.82,0,0,1,1.25,1.53,4.17,4.17,0,0,1,.4,1.72,3.36,3.36,0,0,1-.76,2.11A4.06,4.06,0,0,1,279,97.69a6.48,6.48,0,0,1-2,.4,9.9,9.9,0,0,1-3.92-.77.64.64,0,0,1-.18-.49,3.74,3.74,0,0,0,0-.48c-.17-1.47-.26-2.34-.26-2.62s0-.22.08-.26A.9.9,0,0,1,273.09,93.41Z" transform="translate(-1 -1.58)"/><path d="M284.32,97.61l-.06-.21a.71.71,0,0,1,.15-.34l1-.2,1.39-.24a.51.51,0,0,0,.23-.23,4.24,4.24,0,0,0,.1-1.26q0-5.56-.07-6.42a1.83,1.83,0,0,0-.3-1.09,2.41,2.41,0,0,0-1.2-.35,4.49,4.49,0,0,1-.91-.22l.07-.5a9.56,9.56,0,0,0,2.36-1.21,6.06,6.06,0,0,0,1.42-1.94l.57,0c.07.54.1,1.76.1,3.63v.28a2.39,2.39,0,0,0,0,.31,9.5,9.5,0,0,1,1.59-2.08l.39-.37a2.09,2.09,0,0,1,.45-.41,4,4,0,0,1,1.74-.69A1.62,1.62,0,0,1,295,85.76a1.15,1.15,0,0,1-.33.87,1.52,1.52,0,0,1-1,.41,4.27,4.27,0,0,1-1-.28,4.09,4.09,0,0,0-1-.28,1.11,1.11,0,0,0-.66.15,5.51,5.51,0,0,0-1.13,1.47,2.94,2.94,0,0,0-.52,1.54l.08,2.71,0,3.25a2.43,2.43,0,0,0,.14.72,1,1,0,0,0,.33.28c1.21.1,1.92.17,2.15.21l.35,0a2.06,2.06,0,0,1,1,.2.26.26,0,0,1,.15.25.47.47,0,0,1-.13.26l-1.86,0h-3.43l-.92,0Z" transform="translate(-1 -1.58)"/><path d="M296.74,91a6.77,6.77,0,0,1,.48-2.38,6.65,6.65,0,0,1,1.45-2.28,6.46,6.46,0,0,1,2.06-1.49,8.94,8.94,0,0,1,3.71-.69,7.15,7.15,0,0,1,5.24,2.09,6.88,6.88,0,0,1,2.1,5,6.28,6.28,0,0,1-2.2,4.67A7.86,7.86,0,0,1,304,98a7.71,7.71,0,0,1-3.92-1.07,6.86,6.86,0,0,1-2.36-2.37A6.59,6.59,0,0,1,296.74,91Zm7.41,6.39a5,5,0,0,0,2.46-.67,4.7,4.7,0,0,0,1.89-2.16,8,8,0,0,0,.7-3.43,9.6,9.6,0,0,0-.55-3A4.93,4.93,0,0,0,307,85.62a4.35,4.35,0,0,0-2.66-.84,5.56,5.56,0,0,0-2.26.51,4.22,4.22,0,0,0-1.94,1.94,8.61,8.61,0,0,0-.8,4.1,6.54,6.54,0,0,0,1.38,4.51A4.48,4.48,0,0,0,304.15,97.37Z" transform="translate(-1 -1.58)"/><path d="M314.69,91a6.74,6.74,0,0,1,.47-2.38,6.65,6.65,0,0,1,1.45-2.28,6.57,6.57,0,0,1,2.06-1.49,9,9,0,0,1,3.72-.69,7.14,7.14,0,0,1,5.23,2.09,6.88,6.88,0,0,1,2.1,5,6.24,6.24,0,0,1-2.2,4.67A7.84,7.84,0,0,1,322,98,7.73,7.73,0,0,1,318,96.94a6.94,6.94,0,0,1-2.36-2.37A6.58,6.58,0,0,1,314.69,91Zm7.4,6.39a5,5,0,0,0,2.46-.67,4.7,4.7,0,0,0,1.89-2.16,7.87,7.87,0,0,0,.7-3.43,9.86,9.86,0,0,0-.54-3,5,5,0,0,0-1.68-2.53,4.33,4.33,0,0,0-2.66-.84,5.48,5.48,0,0,0-2.25.51,4.19,4.19,0,0,0-1.95,1.94,8.61,8.61,0,0,0-.8,4.1,6.5,6.5,0,0,0,1.39,4.51A4.45,4.45,0,0,0,322.09,97.37Z" transform="translate(-1 -1.58)"/><path d="M332.08,97a1.78,1.78,0,0,1,.73-.25,3.26,3.26,0,0,0,1-.26,1.22,1.22,0,0,0,.4-.7,36.7,36.7,0,0,0,.12-4.15,27.31,27.31,0,0,0-.22-4.5,3.15,3.15,0,0,0-.95-.36c-.13,0-.38-.08-.77-.18v-.55a4.85,4.85,0,0,0,1.6-.72,11.27,11.27,0,0,0,1.71-1.77h.1l.32,0a.48.48,0,0,1,.22.08l0,1.87q0,.57,0,1.23a13.4,13.4,0,0,1,3.21-2.23,5.32,5.32,0,0,1,2.19-.43,4.29,4.29,0,0,1,2.31.54,5.15,5.15,0,0,1,1.62,2,10.52,10.52,0,0,1,2.71-2,5.66,5.66,0,0,1,2.45-.57A4.17,4.17,0,0,1,354,85.17a5,5,0,0,1,1.22,3.56v1.36l0,1.49,0,3.84a1.39,1.39,0,0,0,.3,1c.09,0,.43.13,1,.3a2.44,2.44,0,0,1,.65.23.29.29,0,0,1,.1.23,1.26,1.26,0,0,1-.1.42H357l-1.69-.1h-1c-.53,0-1.28,0-2.24.06h-.85l-.72,0a2.54,2.54,0,0,1,0-.26.75.75,0,0,1,.11-.33,5.37,5.37,0,0,1,1.24-.32,1.36,1.36,0,0,0,1-.44,8.24,8.24,0,0,0,.2-2.55q0-4.83-.12-5.61a3,3,0,0,0-1.07-1.92,3.31,3.31,0,0,0-2.17-.7,4.09,4.09,0,0,0-2,.51,7.06,7.06,0,0,0-1.88,1.55l0,.39v2.51l-.07,2q0,3,.06,3.39a.85.85,0,0,0,.29.59,3.2,3.2,0,0,0,1.31.34c.32,0,.57.09.75.13a.51.51,0,0,1,.2.43.3.3,0,0,1-.15.29H348l-.84,0h-4.87l-1.34,0a3.18,3.18,0,0,1,0-.36V97a5.51,5.51,0,0,1,1.38-.37,6.79,6.79,0,0,0,1.07-.28.8.8,0,0,0,.15-.21,7.32,7.32,0,0,0,.12-1.31l.08-1.9,0-2.15V89.56a4.36,4.36,0,0,0-.83-2.94,2.72,2.72,0,0,0-2.11-.93,5.38,5.38,0,0,0-2.38.58,5.61,5.61,0,0,0-2,1.54c0,.3,0,.58,0,.83l.07,5.5a5.58,5.58,0,0,0,.21,2.06,1.36,1.36,0,0,0,.86.35,3.9,3.9,0,0,1,1.39.36.32.32,0,0,1,.15.29c0,.09,0,.19,0,.31-1.28-.08-2.13-.13-2.57-.13l-1.21,0-.84,0h-.52l-1.88.06a.74.74,0,0,1,0-.18A1.31,1.31,0,0,1,332.08,97Z" transform="translate(-1 -1.58)"/><polygon class="cls-1" points="0 82.91 4.23 80.54 11.87 75.68 17.13 72.34 18.69 70.69 19.8 66.68 19.96 58.35 19.29 54.82 18.5 52.04 18.82 50.19 22.45 48.87 29.99 47.03 38.46 47.24 46.87 47.82 48.87 48.52 50.34 49.89 52.35 50.59 60.25 49.19 63.75 48.61 65.63 50.05 67.41 49.57 67.13 48.77 69.7 46.14 71.81 43.81 73.11 43.65 74.64 44.65 76.42 44.17 78.46 42.22 79.03 33.95 78.24 31.17 77.12 30.23 75.66 28.85 78.81 27.84 80.46 28.1 80.78 26.25 79.25 25.25 78.9 24.81 78.56 24.37 77.25 24.55 76.42 24.41 76.39 22.13 79.92 18.89 81.68 16.13 84.67 13.57 87.12 11.68 88.45 8.85 92.34 6.06 97.89 3.52 104 2.59 111.83 1.56 116.51 1.55 119.19 0.83 122.69 0.25 128.26 0 128.64 2.72 128.16 3.02 126.92 2.82 126.32 3.87 126 5.72 125.84 9.11 126.7 11.53 126.58 12.27 126.99 12.33 127.95 11.73 128.01 11.36 128.36 11.79 128.17 12.9 128.55 15.62 129.25 16.49 129.06 17.6 128.99 17.97 127.21 18.45 127.21 18.45 127.08 19.19 126.83 20.67 127.47 21.91 128.17 22.78 127.5 24.19 126.9 25.24 126.35 25.91 126.23 31.59 126.48 35.05 126.17 36.9 126.45 37.7 125.08 38.24 126.29 41.1 126.67 43.82 127.31 45.06 127.25 45.43 125.81 46.34 125.27 47.01 125.14 47.75 125.02 48.49 125.24 49.67 126.48 49.87 126.9 49.93 127.38 49.63 127.98 48.58 128.4 48.65 129.16 49.15 130.69 50.15 131.8 51.09 132.22 51.16 133.78 69.27 136.52 102.75 138.27 104.93 133.69 106.86 134.96 109.34 134.23 111.13 133.85 113.35 134.36 115.33 133.94 115.26 132.8 116.98 132.67 117.72 130.56 121.05 129.73 121.42 130.13 117.69 128.53 117.06 128.12 116.99 111.3 110.89 110.38 108.85 106.78 107.52 105.03 105.34 104.93 103.42 104.77 101.87 102.89 100.44 102.32 98.83 102.35 96.17 100.18 93.93 98.37 92.12 96.56 90.31 95.38 89.74 1.18 88.41 0 82.91 0 82.91"/><path class="cls-1" d="M134.13,122.1l-1.55-.22-2.85,1.72-1,2-2.07,1h-2.08s-.77,1.62-.51,2a9.3,9.3,0,0,1-.06,2.74v1.49l2.78-.74s.77-1.62.91-2.12,3.36,1,3.36,1,1.95.25,2.21.25,1.68-.25,1.68-.25,3.84-.49,4.36-.62,3.55-1.12,3.55-1.12l2.46.12s1.94-1.35,3.24-.87,6.22-1.74,6.22-1.74l4.53-2.5,2.72-.75a26.83,26.83,0,0,1,3.11-1.59,13.33,13.33,0,0,0,4.15-1.15l5.83-3.36,3.89-2.12a1.38,1.38,0,0,0-.91-.87c-.65-.13-3.63,1.24-3.63,1.24L169.51,117s-3.12.68-3.76,2.05c-.2.41-2.85,1.19-2.85,1.19l.13-2a13.12,13.12,0,0,1,2.07-1.37,25.78,25.78,0,0,0,2.33-1.25,17.44,17.44,0,0,0,1.3-1.37,15.2,15.2,0,0,1,1.81-1.5l.78-1.37h-1.16l-2.34,2-2.72,1.49-3,2.25-3.37,1.62-9.59.37-1.68,1.5-3.11.12s-2.2-.62-2.59-.75a10.09,10.09,0,0,0-1.69-.12l-.82,2-4,.22Z" transform="translate(-1 -1.58)"/><path class="cls-2" d="M108.63,6.73,95.74,28.93V81.36a3.23,3.23,0,0,0,2.8,3.12h20.25s2.33-.37,2.42-2.25,0-53.09,0-53.09Z" transform="translate(-1 -1.58)"/><polyline class="cls-2" points="24.73 49.9 35.79 27.05 56.84 16.53 77.89 27.05 88.95 49.9"/><path class="cls-3" d="M108.79,34.08c-2.46,0-4.48-2.11-5.55-3.5a5.14,5.14,0,0,1-3.3,2.15c-1.61.21-3.22-.65-4.77-2.53L96.58,29c1.12,1.36,2.18,2,3.13,1.89,1.33-.16,2.39-1.79,2.68-2.4l.75-1.54.86,1.48c.62,1.06,2.68,3.79,4.79,3.79h.06c1.42,0,2.79-1.3,4.08-3.75l.68-1.31.86,1.19c.82,1.14,2.92,3.41,4.24,3.15.67-.13,1.24-1.09,1.61-2.69l1.77.42c-.55,2.4-1.57,3.77-3,4.06-2,.4-4.06-1.51-5.21-2.8-1.46,2.32-3.13,3.51-5,3.55Z" transform="translate(-1 -1.58)"/><rect class="cls-3" x="101.3" y="27.35" width="1.82" height="41.53"/><rect class="cls-3" x="111.82" y="27.35" width="1.82" height="41.81"/><rect class="cls-3" x="94.74" y="68.52" width="25.47" height="1.82"/><rect class="cls-3" x="94.74" y="72.32" width="25.47" height="3.63"/><path class="cls-3" d="M108.78,3.57,94.29,28.85l.22,53.92.11.53A4.39,4.39,0,0,0,98,86.08h20.87a4.41,4.41,0,0,0,3.66-2.81l.09-54.55Zm11.06,78.89a1.7,1.7,0,0,1-1.18.89H98.16a1.84,1.84,0,0,1-.92-.88V29.62l0-.35L105.4,15a6.82,6.82,0,0,0,6.47,0l8,14.51Z" transform="translate(-1 -1.58)"/><polygon class="cls-3" points="76.26 29.15 56.84 19.33 37.42 29.15 27.39 50.13 27.39 84.34 86.29 84.34 86.29 50.13 76.26 29.15"/><path class="cls-2" d="M45.91,85.92,57.84,72.33,69.77,85.92H74V51.86H41.76V85.92Zm25.09-3L59.78,70.12,71,57.35ZM69.47,54.67,57.84,67.91,46.22,54.67ZM44.73,57.39,55.9,70.12,44.73,82.85Z" transform="translate(-1 -1.58)"/><path class="cls-2" d="M53.16,43.84l4.69-5.56,4.7,5.56H64.2V29.9H51.52V43.84ZM63,42.61l-4.41-5.23L63,32.14Zm-.6-11.56-4.58,5.42-4.57-5.42Zm-9.74,1.11,4.4,5.22-4.4,5.21Z" transform="translate(-1 -1.58)"/><rect class="cls-2" x="50.52" y="42.04" width="12.68" height="1.15"/><polygon class="cls-3" points="24.73 49.9 35.79 27.05 56.84 16.53 77.89 27.05 88.95 49.9 93.28 49.9 80.83 24.16 56.84 12.17 32.85 24.16 20.39 49.9 24.73 49.9"/></svg>